<?xml version="1.0" encoding="utf-8"?>
<!-- Generator: Adobe Illustrator 19.0.0, SVG Export Plug-In . SVG Version: 6.00 Build 0)  -->
<svg version="1.1" xmlns="http://www.w3.org/2000/svg" xmlns:xlink="http://www.w3.org/1999/xlink" x="0px" y="0px"
	 viewBox="0 0 342 369" style="enable-background:new 0 0 342 369;" xml:space="preserve">
<style type="text/css">
	.st0{fill:#FFFFFF;stroke:#CCCCCC;stroke-width:8;stroke-miterlimit:10;}

	#details {
		display: block;
	}

	@media screen and (max-width: 150px) {

	details {
		display:none;
		}

	}

</style>
<g id="m_x5F_glass_2_">
	<circle id="circle" class="st0" cx="171" cy="184.5" r="108"/>
	<g id="m_x5F_glass_1_">
		<circle id="m_x5F_glass" class="st0" cx="138.9" cy="152.2" r="34.7"/>
		<path class="st0" d="M235,234.4c3.9,3.9,3.8,10.2-0.1,14.1l0,0c-3.9,3.9-10.2,3.9-14.1,0.1l-62.7-62.7c-4.2-4.2,3.3-3.3,7.2-7.2
			l0,0c3.9-3.9,2.7-11.2,7-7L235,234.4z"/>
	</g>
</g>
<g id="details_1_">
	<g id="details">
		<path class="st0" d="M123.3,167.8c-8.6-8.6-8.6-22.5,0-31"/>
		<path class="st0" d="M172.2,200l-14.1-14.1c-4.2-4.2,3.3-3.3,7.2-7.2l0,0c3.9-3.9,2.7-11.2,7-7l14.1,14.1L172.2,200z"/>
	</g>
</g>
</svg>
